<?xml version="1.0" encoding="utf-8" standalone="no"?>
<!DOCTYPE svg PUBLIC "-//W3C//DTD SVG 1.1//EN"
  "http://www.w3.org/Graphics/SVG/1.1/DTD/svg11.dtd">
<svg xmlns:xlink="http://www.w3.org/1999/xlink" width="576pt" height="273.6pt" viewBox="0 0 576 273.6" xmlns="http://www.w3.org/2000/svg" version="1.1">
 <metadata>
  <rdf:RDF xmlns:dc="http://purl.org/dc/elements/1.1/" xmlns:cc="http://creativecommons.org/ns#" xmlns:rdf="http://www.w3.org/1999/02/22-rdf-syntax-ns#">
   <cc:Work>
    <dc:type rdf:resource="http://purl.org/dc/dcmitype/StillImage"/>
    <dc:date>2026-09-12T19:23:58.830247</dc:date>
    <dc:format>image/svg+xml</dc:format>
    <dc:creator>
     <cc:Agent>
      <dc:title>Matplotlib v3.11.1, https://matplotlib.org/</dc:title>
     </cc:Agent>
    </dc:creator>
   </cc:Work>
  </rdf:RDF>
 </metadata>
 <defs>
  <style type="text/css">*{stroke-linejoin: round; stroke-linecap: butt}</style>
 </defs>
 <g id="figure_1">
  <g id="patch_1">
   <path d="M 0 273.6 
L 576 273.6 
L 576 0 
L 0 0 
z
" style="fill: #ffffff"/>
  </g>
  <g id="axes_1">
   <g id="patch_2">
    <path d="M 55.494297 245.145703 
L 565.2 245.145703 
L 565.2 27.6 
L 55.494297 27.6 
z
" style="fill: #ffffff"/>
   </g>
   <g id="patch_3">
    <path d="M 78.662738 245.145703 
L 109.232209 245.145703 
L 109.232209 58.998204 
L 78.662738 58.998204 
z
" clip-path="url(#p39157eea5f)" style="fill: #8c6d5d"/>
   </g>
   <g id="patch_4">
    <path d="M 159.108714 245.145703 
L 189.678185 245.145703 
L 189.678185 61.193763 
L 159.108714 61.193763 
z
" clip-path="url(#p39157eea5f)" style="fill: #8c6d5d"/>
   </g>
   <g id="patch_5">
    <path d="M 239.55469 245.145703 
L 270.124161 245.145703 
L 270.124161 61.57409 
L 239.55469 61.57409 
z
" clip-path="url(#p39157eea5f)" style="fill: #8c6d5d"/>
   </g>
   <g id="patch_6">
    <path d="M 320.000666 245.145703 
L 350.570136 245.145703 
L 350.570136 58.816308 
L 320.000666 58.816308 
z
" clip-path="url(#p39157eea5f)" style="fill: #8c6d5d"/>
   </g>
   <g id="patch_7">
    <path d="M 400.446641 245.145703 
L 431.016112 245.145703 
L 431.016112 63.303108 
L 400.446641 63.303108 
z
" clip-path="url(#p39157eea5f)" style="fill: #8c6d5d"/>
   </g>
   <g id="patch_8">
    <path d="M 480.892617 245.145703 
L 511.462088 245.145703 
L 511.462088 63.303818 
L 480.892617 63.303818 
z
" clip-path="url(#p39157eea5f)" style="fill: #8c6d5d"/>
   </g>
   <g id="patch_9">
    <path d="M 109.232209 245.145703 
L 139.80168 245.145703 
L 139.80168 51.010976 
L 109.232209 51.010976 
z
" clip-path="url(#p39157eea5f)" style="fill: #c15f3c"/>
   </g>
   <g id="patch_10">
    <path d="M 189.678185 245.145703 
L 220.247655 245.145703 
L 220.247655 53.326999 
L 189.678185 53.326999 
z
" clip-path="url(#p39157eea5f)" style="fill: #c15f3c"/>
   </g>
   <g id="patch_11">
    <path d="M 270.124161 245.145703 
L 300.693631 245.145703 
L 300.693631 53.774427 
L 270.124161 53.774427 
z
" clip-path="url(#p39157eea5f)" style="fill: #c15f3c"/>
   </g>
   <g id="patch_12">
    <path d="M 350.570136 245.145703 
L 381.139607 245.145703 
L 381.139607 50.908468 
L 350.570136 50.908468 
z
" clip-path="url(#p39157eea5f)" style="fill: #c15f3c"/>
   </g>
   <g id="patch_13">
    <path d="M 431.016112 245.145703 
L 461.585583 245.145703 
L 461.585583 55.544012 
L 431.016112 55.544012 
z
" clip-path="url(#p39157eea5f)" style="fill: #c15f3c"/>
   </g>
   <g id="patch_14">
    <path d="M 511.462088 245.145703 
L 542.031559 245.145703 
L 542.031559 55.531715 
L 511.462088 55.531715 
z
" clip-path="url(#p39157eea5f)" style="fill: #c15f3c"/>
   </g>
   <g id="matplotlib.axis_1">
    <g id="xtick_1">
     <g id="line2d_1">
      <defs>
       <path id="mcb4ec6e7c8" d="M 0 0 
L 0 3.5 
" style="stroke: #000000; stroke-width: 0.8"/>
      </defs>
      <g>
       <use xlink:href="#mcb4ec6e7c8" x="109.232209" y="245.145703" style="stroke: #000000; stroke-width: 0.8"/>
      </g>
     </g>
     <g id="text_1">
      <!-- 仅0:00 -->
      <g transform="translate(94.232209 260.470703) scale(0.1 -0.1)">
       <defs>
        <path id="MicrosoftYaHei-44e" d="M 2131 4416 
L 2131 4853 
L 5906 4853 
L 5906 4428 
Q 5628 2366 4441 953 
Q 5203 175 6338 -284 
Q 6094 -578 5944 -784 
Q 4834 -244 4075 553 
Q 3256 -263 2088 -828 
Q 1969 -659 1713 -366 
Q 2909 184 3716 972 
Q 2634 2359 2459 4416 
L 2131 4416 
z
M 5344 4416 
L 2941 4416 
Q 3138 2572 4081 1363 
Q 5147 2625 5344 4416 
z
M 56 2384 
Q 1044 3716 1531 5328 
L 2038 5159 
Q 1741 4331 1388 3619 
L 1388 -803 
L 900 -803 
L 900 2741 
Q 594 2250 256 1828 
Q 163 2097 56 2384 
z
" transform="scale(0.015625)"/>
        <path id="MicrosoftYaHei-16" d="M 284 2325 
Q 284 3606 709 4264 
Q 1134 4922 1941 4922 
Q 3478 4922 3478 2441 
Q 3478 1216 3045 567 
Q 2613 -81 1831 -81 
Q 1094 -81 689 534 
Q 284 1150 284 2325 
z
M 909 2353 
Q 909 425 1888 425 
Q 2850 425 2850 2384 
Q 2850 4413 1906 4413 
Q 909 4413 909 2353 
z
" transform="scale(0.015625)"/>
        <path id="MicrosoftYaHei-20" d="M 372 3134 
Q 372 3303 490 3415 
Q 609 3528 775 3528 
Q 944 3528 1062 3414 
Q 1181 3300 1181 3134 
Q 1181 2969 1065 2853 
Q 950 2738 772 2738 
Q 603 2738 487 2853 
Q 372 2969 372 3134 
z
M 372 322 
Q 372 491 487 606 
Q 603 722 775 722 
Q 950 722 1065 605 
Q 1181 488 1181 322 
Q 1181 159 1065 42 
Q 950 -75 772 -75 
Q 600 -75 486 42 
Q 372 159 372 322 
z
" transform="scale(0.015625)"/>
       </defs>
       <use xlink:href="#MicrosoftYaHei-44e"/>
       <use xlink:href="#MicrosoftYaHei-16" transform="translate(100 0)"/>
       <use xlink:href="#MicrosoftYaHei-20" transform="translate(158.640625 0)"/>
       <use xlink:href="#MicrosoftYaHei-16" transform="translate(182.71875 0)"/>
       <use xlink:href="#MicrosoftYaHei-16" transform="translate(241.359375 0)"/>
      </g>
     </g>
    </g>
    <g id="xtick_2">
     <g id="line2d_2">
      <g>
       <use xlink:href="#mcb4ec6e7c8" x="189.678185" y="245.145703" style="stroke: #000000; stroke-width: 0.8"/>
      </g>
     </g>
     <g id="text_2">
      <!-- +6:00 -->
      <g transform="translate(175.969591 260.26582) scale(0.1 -0.1)">
       <defs>
        <path id="MicrosoftYaHei-11" d="M 3972 1772 
L 2613 1772 
L 2613 419 
L 2141 419 
L 2141 1772 
L 788 1772 
L 788 2250 
L 2141 2250 
L 2141 3603 
L 2613 3603 
L 2613 2250 
L 3972 2250 
L 3972 1772 
z
" transform="scale(0.015625)"/>
        <path id="MicrosoftYaHei-1c" d="M 3181 4219 
Q 2803 4413 2391 4413 
Q 1763 4413 1381 3866 
Q 1000 3319 994 2372 
L 1009 2372 
Q 1353 3038 2106 3038 
Q 2734 3038 3109 2628 
Q 3484 2219 3484 1541 
Q 3484 831 3051 375 
Q 2619 -81 1947 -81 
Q 1209 -81 789 495 
Q 369 1072 369 2131 
Q 369 3413 920 4167 
Q 1472 4922 2372 4922 
Q 2888 4922 3181 4781 
L 3181 4219 
z
M 1031 1584 
Q 1031 1106 1286 765 
Q 1541 425 1963 425 
Q 2363 425 2613 719 
Q 2863 1013 2863 1475 
Q 2863 1975 2627 2253 
Q 2391 2531 1956 2531 
Q 1544 2531 1287 2250 
Q 1031 1969 1031 1584 
z
" transform="scale(0.015625)"/>
       </defs>
       <use xlink:href="#MicrosoftYaHei-11"/>
       <use xlink:href="#MicrosoftYaHei-1c" transform="translate(74.171875 0)"/>
       <use xlink:href="#MicrosoftYaHei-20" transform="translate(132.8125 0)"/>
       <use xlink:href="#MicrosoftYaHei-16" transform="translate(156.890625 0)"/>
       <use xlink:href="#MicrosoftYaHei-16" transform="translate(215.53125 0)"/>
      </g>
     </g>
    </g>
    <g id="xtick_3">
     <g id="line2d_3">
      <g>
       <use xlink:href="#mcb4ec6e7c8" x="270.124161" y="245.145703" style="stroke: #000000; stroke-width: 0.8"/>
      </g>
     </g>
     <g id="text_3">
      <!-- +12:00 -->
      <g transform="translate(253.483536 260.26582) scale(0.1 -0.1)">
       <defs>
        <path id="MicrosoftYaHei-17" d="M 1781 0 
L 1781 4141 
Q 1638 3997 1295 3819 
Q 953 3641 663 3569 
L 663 4169 
Q 1047 4275 1484 4508 
Q 1922 4741 2156 4947 
L 2388 4947 
L 2388 0 
L 1781 0 
z
" transform="scale(0.015625)"/>
        <path id="MicrosoftYaHei-18" d="M 2666 3572 
Q 2666 3963 2419 4186 
Q 2172 4409 1747 4409 
Q 1447 4409 1140 4256 
Q 834 4103 569 3819 
L 569 4413 
Q 806 4659 1107 4790 
Q 1409 4922 1816 4922 
Q 2472 4922 2872 4570 
Q 3272 4219 3272 3619 
Q 3272 3084 3026 2693 
Q 2781 2303 2188 1894 
Q 1581 1475 1376 1294 
Q 1172 1113 1090 947 
Q 1009 781 1009 544 
L 3416 544 
L 3416 0 
L 372 0 
L 372 241 
Q 372 659 486 951 
Q 600 1244 862 1520 
Q 1125 1797 1681 2184 
Q 2250 2584 2458 2886 
Q 2666 3188 2666 3572 
z
" transform="scale(0.015625)"/>
       </defs>
       <use xlink:href="#MicrosoftYaHei-11"/>
       <use xlink:href="#MicrosoftYaHei-17" transform="translate(74.171875 0)"/>
       <use xlink:href="#MicrosoftYaHei-18" transform="translate(132.8125 0)"/>
       <use xlink:href="#MicrosoftYaHei-20" transform="translate(191.453125 0)"/>
       <use xlink:href="#MicrosoftYaHei-16" transform="translate(215.53125 0)"/>
       <use xlink:href="#MicrosoftYaHei-16" transform="translate(274.171875 0)"/>
      </g>
     </g>
    </g>
    <g id="xtick_4">
     <g id="line2d_4">
      <g>
       <use xlink:href="#mcb4ec6e7c8" x="350.570136" y="245.145703" style="stroke: #000000; stroke-width: 0.8"/>
      </g>
     </g>
     <g id="text_4">
      <!-- +18:00 -->
      <g transform="translate(333.929511 260.26582) scale(0.1 -0.1)">
       <defs>
        <path id="MicrosoftYaHei-1e" d="M 306 1350 
Q 306 1769 556 2122 
Q 806 2475 1200 2625 
Q 884 2803 700 3081 
Q 516 3359 516 3684 
Q 516 4028 692 4312 
Q 869 4597 1183 4759 
Q 1497 4922 1875 4922 
Q 2256 4922 2572 4761 
Q 2888 4600 3063 4315 
Q 3238 4031 3238 3684 
Q 3238 3366 3058 3086 
Q 2878 2806 2559 2625 
Q 2953 2472 3200 2119 
Q 3447 1766 3447 1350 
Q 3447 938 3250 611 
Q 3053 284 2690 103 
Q 2328 -78 1875 -78 
Q 1425 -78 1065 103 
Q 706 284 506 612 
Q 306 941 306 1350 
z
M 906 1378 
Q 906 947 1172 687 
Q 1438 428 1878 428 
Q 2309 428 2582 692 
Q 2856 956 2856 1378 
Q 2856 1778 2579 2051 
Q 2303 2325 1878 2325 
Q 1456 2325 1181 2058 
Q 906 1791 906 1378 
z
M 1081 3634 
Q 1081 3309 1312 3076 
Q 1544 2844 1878 2844 
Q 2206 2844 2445 3078 
Q 2684 3313 2684 3634 
Q 2684 3963 2454 4191 
Q 2225 4419 1878 4419 
Q 1534 4419 1307 4195 
Q 1081 3972 1081 3634 
z
" transform="scale(0.015625)"/>
       </defs>
       <use xlink:href="#MicrosoftYaHei-11"/>
       <use xlink:href="#MicrosoftYaHei-17" transform="translate(74.171875 0)"/>
       <use xlink:href="#MicrosoftYaHei-1e" transform="translate(132.8125 0)"/>
       <use xlink:href="#MicrosoftYaHei-20" transform="translate(191.453125 0)"/>
       <use xlink:href="#MicrosoftYaHei-16" transform="translate(215.53125 0)"/>
       <use xlink:href="#MicrosoftYaHei-16" transform="translate(274.171875 0)"/>
      </g>
     </g>
    </g>
    <g id="xtick_5">
     <g id="line2d_5">
      <g>
       <use xlink:href="#mcb4ec6e7c8" x="431.016112" y="245.145703" style="stroke: #000000; stroke-width: 0.8"/>
      </g>
     </g>
     <g id="text_5">
      <!-- +6,12 -->
      <g transform="translate(417.307518 260.26582) scale(0.1 -0.1)">
       <defs>
        <path id="MicrosoftYaHei-12" d="M 1109 778 
L 575 -888 
L 131 -888 
L 519 778 
L 1109 778 
z
" transform="scale(0.015625)"/>
       </defs>
       <use xlink:href="#MicrosoftYaHei-11"/>
       <use xlink:href="#MicrosoftYaHei-1c" transform="translate(74.171875 0)"/>
       <use xlink:href="#MicrosoftYaHei-12" transform="translate(132.8125 0)"/>
       <use xlink:href="#MicrosoftYaHei-17" transform="translate(156.890625 0)"/>
       <use xlink:href="#MicrosoftYaHei-18" transform="translate(215.53125 0)"/>
      </g>
     </g>
    </g>
    <g id="xtick_6">
     <g id="line2d_6">
      <g>
       <use xlink:href="#mcb4ec6e7c8" x="511.462088" y="245.145703" style="stroke: #000000; stroke-width: 0.8"/>
      </g>
     </g>
     <g id="text_6">
      <!-- +6,12,18 -->
      <g transform="translate(490.685526 260.26582) scale(0.1 -0.1)">
       <use xlink:href="#MicrosoftYaHei-11"/>
       <use xlink:href="#MicrosoftYaHei-1c" transform="translate(74.171875 0)"/>
       <use xlink:href="#MicrosoftYaHei-12" transform="translate(132.8125 0)"/>
       <use xlink:href="#MicrosoftYaHei-17" transform="translate(156.890625 0)"/>
       <use xlink:href="#MicrosoftYaHei-18" transform="translate(215.53125 0)"/>
       <use xlink:href="#MicrosoftYaHei-12" transform="translate(274.171875 0)"/>
       <use xlink:href="#MicrosoftYaHei-17" transform="translate(298.25 0)"/>
       <use xlink:href="#MicrosoftYaHei-1e" transform="translate(356.890625 0)"/>
      </g>
     </g>
    </g>
   </g>
   <g id="matplotlib.axis_2">
    <g id="ytick_1">
     <g id="line2d_7">
      <path d="M 55.494297 245.145703 
L 565.2 245.145703 
" clip-path="url(#p39157eea5f)" style="fill: none; stroke: #b0b0b0; stroke-opacity: 0.25; stroke-width: 0.5; stroke-linecap: square"/>
     </g>
     <g id="line2d_8">
      <defs>
       <path id="m13026a56c1" d="M 0 0 
L -3.5 0 
" style="stroke: #000000; stroke-width: 0.8"/>
      </defs>
      <g>
       <use xlink:href="#m13026a56c1" x="55.494297" y="245.145703" style="stroke: #000000; stroke-width: 0.8"/>
      </g>
     </g>
     <g id="text_7">
      <!-- 0 -->
      <g transform="translate(42.630234 249.205762) scale(0.1 -0.1)">
       <use xlink:href="#MicrosoftYaHei-16"/>
      </g>
     </g>
    </g>
    <g id="ytick_2">
     <g id="line2d_9">
      <path d="M 55.494297 220.09454 
L 565.2 220.09454 
" clip-path="url(#p39157eea5f)" style="fill: none; stroke: #b0b0b0; stroke-opacity: 0.25; stroke-width: 0.5; stroke-linecap: square"/>
     </g>
     <g id="line2d_10">
      <g>
       <use xlink:href="#m13026a56c1" x="55.494297" y="220.09454" style="stroke: #000000; stroke-width: 0.8"/>
      </g>
     </g>
     <g id="text_8">
      <!-- 200 -->
      <g transform="translate(30.902109 224.154599) scale(0.1 -0.1)">
       <use xlink:href="#MicrosoftYaHei-18"/>
       <use xlink:href="#MicrosoftYaHei-16" transform="translate(58.640625 0)"/>
       <use xlink:href="#MicrosoftYaHei-16" transform="translate(117.28125 0)"/>
      </g>
     </g>
    </g>
    <g id="ytick_3">
     <g id="line2d_11">
      <path d="M 55.494297 195.043377 
L 565.2 195.043377 
" clip-path="url(#p39157eea5f)" style="fill: none; stroke: #b0b0b0; stroke-opacity: 0.25; stroke-width: 0.5; stroke-linecap: square"/>
     </g>
     <g id="line2d_12">
      <g>
       <use xlink:href="#m13026a56c1" x="55.494297" y="195.043377" style="stroke: #000000; stroke-width: 0.8"/>
      </g>
     </g>
     <g id="text_9">
      <!-- 400 -->
      <g transform="translate(30.902109 199.103436) scale(0.1 -0.1)">
       <defs>
        <path id="MicrosoftYaHei-1a" d="M 2906 4841 
L 2906 1644 
L 3631 1644 
L 3631 1138 
L 2906 1138 
L 2906 0 
L 2313 0 
L 2313 1138 
L 53 1138 
L 53 1616 
Q 656 2294 1265 3178 
Q 1875 4063 2272 4841 
L 2906 4841 
z
M 741 1644 
L 2313 1644 
L 2313 3950 
Q 1988 3366 1616 2817 
Q 1244 2269 741 1644 
z
" transform="scale(0.015625)"/>
       </defs>
       <use xlink:href="#MicrosoftYaHei-1a"/>
       <use xlink:href="#MicrosoftYaHei-16" transform="translate(58.640625 0)"/>
       <use xlink:href="#MicrosoftYaHei-16" transform="translate(117.28125 0)"/>
      </g>
     </g>
    </g>
    <g id="ytick_4">
     <g id="line2d_13">
      <path d="M 55.494297 169.992214 
L 565.2 169.992214 
" clip-path="url(#p39157eea5f)" style="fill: none; stroke: #b0b0b0; stroke-opacity: 0.25; stroke-width: 0.5; stroke-linecap: square"/>
     </g>
     <g id="line2d_14">
      <g>
       <use xlink:href="#m13026a56c1" x="55.494297" y="169.992214" style="stroke: #000000; stroke-width: 0.8"/>
      </g>
     </g>
     <g id="text_10">
      <!-- 600 -->
      <g transform="translate(30.902109 174.052273) scale(0.1 -0.1)">
       <use xlink:href="#MicrosoftYaHei-1c"/>
       <use xlink:href="#MicrosoftYaHei-16" transform="translate(58.640625 0)"/>
       <use xlink:href="#MicrosoftYaHei-16" transform="translate(117.28125 0)"/>
      </g>
     </g>
    </g>
    <g id="ytick_5">
     <g id="line2d_15">
      <path d="M 55.494297 144.941051 
L 565.2 144.941051 
" clip-path="url(#p39157eea5f)" style="fill: none; stroke: #b0b0b0; stroke-opacity: 0.25; stroke-width: 0.5; stroke-linecap: square"/>
     </g>
     <g id="line2d_16">
      <g>
       <use xlink:href="#m13026a56c1" x="55.494297" y="144.941051" style="stroke: #000000; stroke-width: 0.8"/>
      </g>
     </g>
     <g id="text_11">
      <!-- 800 -->
      <g transform="translate(30.902109 149.00111) scale(0.1 -0.1)">
       <use xlink:href="#MicrosoftYaHei-1e"/>
       <use xlink:href="#MicrosoftYaHei-16" transform="translate(58.640625 0)"/>
       <use xlink:href="#MicrosoftYaHei-16" transform="translate(117.28125 0)"/>
      </g>
     </g>
    </g>
    <g id="ytick_6">
     <g id="line2d_17">
      <path d="M 55.494297 119.889888 
L 565.2 119.889888 
" clip-path="url(#p39157eea5f)" style="fill: none; stroke: #b0b0b0; stroke-opacity: 0.25; stroke-width: 0.5; stroke-linecap: square"/>
     </g>
     <g id="line2d_18">
      <g>
       <use xlink:href="#m13026a56c1" x="55.494297" y="119.889888" style="stroke: #000000; stroke-width: 0.8"/>
      </g>
     </g>
     <g id="text_12">
      <!-- 1000 -->
      <g transform="translate(25.038047 123.949947) scale(0.1 -0.1)">
       <use xlink:href="#MicrosoftYaHei-17"/>
       <use xlink:href="#MicrosoftYaHei-16" transform="translate(58.640625 0)"/>
       <use xlink:href="#MicrosoftYaHei-16" transform="translate(117.28125 0)"/>
       <use xlink:href="#MicrosoftYaHei-16" transform="translate(175.921875 0)"/>
      </g>
     </g>
    </g>
    <g id="ytick_7">
     <g id="line2d_19">
      <path d="M 55.494297 94.838725 
L 565.2 94.838725 
" clip-path="url(#p39157eea5f)" style="fill: none; stroke: #b0b0b0; stroke-opacity: 0.25; stroke-width: 0.5; stroke-linecap: square"/>
     </g>
     <g id="line2d_20">
      <g>
       <use xlink:href="#m13026a56c1" x="55.494297" y="94.838725" style="stroke: #000000; stroke-width: 0.8"/>
      </g>
     </g>
     <g id="text_13">
      <!-- 1200 -->
      <g transform="translate(25.038047 98.898784) scale(0.1 -0.1)">
       <use xlink:href="#MicrosoftYaHei-17"/>
       <use xlink:href="#MicrosoftYaHei-18" transform="translate(58.640625 0)"/>
       <use xlink:href="#MicrosoftYaHei-16" transform="translate(117.28125 0)"/>
       <use xlink:href="#MicrosoftYaHei-16" transform="translate(175.921875 0)"/>
      </g>
     </g>
    </g>
    <g id="ytick_8">
     <g id="line2d_21">
      <path d="M 55.494297 69.787562 
L 565.2 69.787562 
" clip-path="url(#p39157eea5f)" style="fill: none; stroke: #b0b0b0; stroke-opacity: 0.25; stroke-width: 0.5; stroke-linecap: square"/>
     </g>
     <g id="line2d_22">
      <g>
       <use xlink:href="#m13026a56c1" x="55.494297" y="69.787562" style="stroke: #000000; stroke-width: 0.8"/>
      </g>
     </g>
     <g id="text_14">
      <!-- 1400 -->
      <g transform="translate(25.038047 73.847621) scale(0.1 -0.1)">
       <use xlink:href="#MicrosoftYaHei-17"/>
       <use xlink:href="#MicrosoftYaHei-1a" transform="translate(58.640625 0)"/>
       <use xlink:href="#MicrosoftYaHei-16" transform="translate(117.28125 0)"/>
       <use xlink:href="#MicrosoftYaHei-16" transform="translate(175.921875 0)"/>
      </g>
     </g>
    </g>
    <g id="ytick_9">
     <g id="line2d_23">
      <path d="M 55.494297 44.736399 
L 565.2 44.736399 
" clip-path="url(#p39157eea5f)" style="fill: none; stroke: #b0b0b0; stroke-opacity: 0.25; stroke-width: 0.5; stroke-linecap: square"/>
     </g>
     <g id="line2d_24">
      <g>
       <use xlink:href="#m13026a56c1" x="55.494297" y="44.736399" style="stroke: #000000; stroke-width: 0.8"/>
      </g>
     </g>
     <g id="text_15">
      <!-- 1600 -->
      <g transform="translate(25.038047 48.796458) scale(0.1 -0.1)">
       <use xlink:href="#MicrosoftYaHei-17"/>
       <use xlink:href="#MicrosoftYaHei-1c" transform="translate(58.640625 0)"/>
       <use xlink:href="#MicrosoftYaHei-16" transform="translate(117.28125 0)"/>
       <use xlink:href="#MicrosoftYaHei-16" transform="translate(175.921875 0)"/>
      </g>
     </g>
    </g>
    <g id="text_16">
     <!-- 全年总费用 / 万元 -->
     <g transform="translate(18.503867 176.468164) rotate(-90) scale(0.1 -0.1)">
      <defs>
       <path id="MicrosoftYaHei-4b6" d="M 369 -103 
L 2950 -103 
L 2950 984 
L 925 984 
L 925 1441 
L 2950 1441 
L 2950 2403 
L 1156 2403 
L 1156 2859 
L 5269 2859 
L 5269 2403 
L 3469 2403 
L 3469 1441 
L 5500 1441 
L 5500 984 
L 3469 984 
L 3469 -103 
L 6044 -103 
L 6044 -566 
L 369 -566 
L 369 -103 
z
M 3656 5234 
L 3531 5078 
Q 4581 3703 6319 3009 
Q 6125 2734 5988 2509 
Q 4338 3322 3219 4691 
Q 2263 3453 394 2428 
Q 269 2641 81 2897 
Q 2013 3866 3000 5234 
L 3656 5234 
z
" transform="scale(0.015625)"/>
       <path id="MicrosoftYaHei-676" d="M 119 1278 
L 1125 1278 
L 1125 3066 
L 3338 3066 
L 3338 4178 
L 1500 4178 
Q 1078 3419 556 2778 
Q 394 2953 169 3128 
Q 1056 4128 1500 5372 
L 2013 5228 
Q 1881 4919 1738 4628 
L 6038 4628 
L 6038 4178 
L 3844 4178 
L 3844 3066 
L 5931 3066 
L 5931 2628 
L 3844 2628 
L 3844 1278 
L 6319 1278 
L 6319 828 
L 3844 828 
L 3844 -859 
L 3338 -859 
L 3338 828 
L 119 828 
L 119 1278 
z
M 1619 1278 
L 3338 1278 
L 3338 2628 
L 1619 2628 
L 1619 1278 
z
" transform="scale(0.015625)"/>
       <path id="MicrosoftYaHei-6c8" d="M 900 4253 
L 3631 4253 
Q 4022 4822 4331 5353 
L 4813 5103 
Q 4500 4675 4175 4253 
L 5500 4253 
L 5500 1703 
L 5000 1703 
L 5000 1978 
L 1400 1978 
L 1400 1703 
L 900 1703 
L 900 4253 
z
M 5000 3803 
L 1400 3803 
L 1400 2428 
L 5000 2428 
L 5000 3803 
z
M 1694 1378 
L 2181 1378 
L 2181 284 
Q 2181 -203 2619 -203 
L 3875 -203 
Q 4244 -203 4338 172 
Q 4394 366 4450 872 
Q 4631 791 4931 684 
Q 4850 209 4750 -97 
Q 4556 -641 3900 -641 
L 2519 -641 
Q 1694 -641 1694 197 
L 1694 1378 
z
M 719 1422 
L 1188 1272 
Q 931 491 538 -334 
Q 338 -247 81 -134 
Q 444 597 719 1422 
z
M 4881 1203 
L 5238 1478 
Q 5813 841 6319 197 
L 5900 -134 
Q 5456 491 4881 1203 
z
M 2663 1591 
L 3044 1841 
Q 3488 1372 3863 841 
L 3444 547 
Q 3069 1109 2663 1591 
z
M 1594 5109 
L 1975 5353 
Q 2350 4959 2650 4541 
L 2225 4266 
Q 1956 4653 1594 5109 
z
" transform="scale(0.015625)"/>
       <path id="MicrosoftYaHei-acb" d="M 525 4753 
L 2319 4753 
Q 2331 5034 2331 5278 
L 2781 5278 
Q 2781 5034 2769 4753 
L 3856 4753 
L 3856 5278 
L 4306 5278 
L 4306 4753 
L 5813 4753 
L 5813 3328 
L 5363 3328 
L 5363 3484 
L 4306 3484 
L 4306 2922 
L 6094 2922 
Q 6081 2472 6025 2153 
Q 5956 1716 5463 1716 
Q 5388 1716 5275 1716 
L 5275 191 
L 4825 191 
L 4825 1466 
L 1688 1466 
L 1688 116 
L 1238 116 
L 1238 1466 
Q 856 1297 369 1153 
Q 288 1334 100 1584 
Q 1525 1891 1981 2559 
L 606 2559 
L 806 3847 
L 2294 3847 
Q 2313 4091 2313 4391 
L 525 4391 
L 525 4753 
z
M 4744 2153 
Q 5094 2116 5325 2116 
Q 5575 2116 5613 2303 
Q 5638 2441 5644 2559 
L 4306 2559 
L 4306 1947 
L 3856 1947 
L 3856 2559 
L 2513 2559 
Q 2344 2178 1925 1866 
L 4831 1866 
Q 4800 1984 4744 2153 
z
M 3031 1116 
L 3475 1116 
Q 3475 716 3388 409 
Q 4813 -9 5975 -422 
L 5744 -872 
Q 4481 -403 3231 9 
Q 2844 -622 669 -878 
Q 550 -578 456 -428 
Q 1900 -291 2625 53 
Q 3044 259 3031 1116 
z
M 2631 2922 
L 3856 2922 
L 3856 3484 
L 2719 3484 
Q 2688 3153 2631 2922 
z
M 1113 2922 
L 2156 2922 
Q 2225 3141 2263 3484 
L 1188 3484 
L 1113 2922 
z
M 2744 3847 
L 3856 3847 
L 3856 4391 
L 2763 4391 
Q 2763 4097 2744 3847 
z
M 5363 4391 
L 4306 4391 
L 4306 3847 
L 5363 3847 
L 5363 4391 
z
" transform="scale(0.015625)"/>
       <path id="MicrosoftYaHei-900" d="M 3088 -734 
L 3088 1253 
L 1269 1253 
Q 1163 -47 513 -903 
Q 350 -697 144 -472 
Q 550 103 694 803 
Q 831 1478 831 2716 
L 831 4947 
L 5925 4947 
L 5925 -22 
Q 5925 -766 5219 -766 
Q 4788 -766 4250 -747 
Q 4219 -541 4156 -228 
Q 4700 -266 5038 -266 
Q 5425 -266 5425 103 
L 5425 1253 
L 3588 1253 
L 3588 -734 
L 3088 -734 
z
M 3588 1703 
L 5425 1703 
L 5425 2872 
L 3588 2872 
L 3588 1703 
z
M 5425 4484 
L 3588 4484 
L 3588 3322 
L 5425 3322 
L 5425 4484 
z
M 1303 1703 
L 3088 1703 
L 3088 2872 
L 1331 2872 
Q 1350 2266 1303 1703 
z
M 1331 4484 
L 1331 3322 
L 3088 3322 
L 3088 4484 
L 1331 4484 
z
" transform="scale(0.015625)"/>
       <path id="MicrosoftYaHei-3" transform="scale(0.015625)"/>
       <path id="MicrosoftYaHei-15" d="M 2791 4841 
L 469 -803 
L -103 -803 
L 2219 4841 
L 2791 4841 
z
" transform="scale(0.015625)"/>
       <path id="MicrosoftYaHei-405" d="M 188 4803 
L 6213 4803 
L 6213 4322 
L 2634 4322 
Q 2609 3625 2569 3016 
L 5469 3016 
Q 5406 1741 5325 597 
Q 5269 -97 5006 -403 
Q 4756 -684 4100 -691 
Q 3756 -703 2938 -641 
Q 2906 -403 2844 -66 
Q 3638 -172 4056 -172 
Q 4725 -222 4794 672 
Q 4869 1547 4906 2541 
L 2531 2541 
Q 2297 253 481 -859 
Q 338 -666 113 -416 
Q 1869 653 1994 2772 
Q 2053 3456 2072 4322 
L 188 4322 
L 188 4803 
z
" transform="scale(0.015625)"/>
       <path id="MicrosoftYaHei-4ab" d="M 188 3084 
L 6225 3084 
L 6225 2609 
L 4250 2609 
L 4250 172 
Q 4250 -197 4625 -197 
L 5163 -197 
Q 5613 -197 5675 216 
Q 5731 566 5769 1103 
Q 6019 1016 6313 947 
Q 6250 409 6181 47 
Q 6056 -641 5275 -641 
L 4513 -641 
Q 3725 -641 3725 128 
L 3725 2609 
L 2450 2609 
L 2450 2409 
Q 2450 1084 2050 447 
Q 1650 -247 469 -847 
Q 244 -572 100 -428 
Q 1181 103 1556 691 
Q 1925 1253 1925 2384 
L 1925 2609 
L 188 2609 
L 188 3084 
z
M 788 4903 
L 5638 4903 
L 5638 4428 
L 788 4428 
L 788 4903 
z
" transform="scale(0.015625)"/>
      </defs>
      <use xlink:href="#MicrosoftYaHei-4b6"/>
      <use xlink:href="#MicrosoftYaHei-676" transform="translate(100 0)"/>
      <use xlink:href="#MicrosoftYaHei-6c8" transform="translate(200 0)"/>
      <use xlink:href="#MicrosoftYaHei-acb" transform="translate(300 0)"/>
      <use xlink:href="#MicrosoftYaHei-900" transform="translate(400 0)"/>
      <use xlink:href="#MicrosoftYaHei-3" transform="translate(500 0)"/>
      <use xlink:href="#MicrosoftYaHei-15" transform="translate(529.59375 0)"/>
      <use xlink:href="#MicrosoftYaHei-3" transform="translate(572.3125 0)"/>
      <use xlink:href="#MicrosoftYaHei-405" transform="translate(601.90625 0)"/>
      <use xlink:href="#MicrosoftYaHei-4ab" transform="translate(701.90625 0)"/>
     </g>
    </g>
   </g>
   <g id="patch_15">
    <path d="M 55.494297 245.145703 
L 55.494297 27.6 
" style="fill: none; stroke: #000000; stroke-width: 0.8; stroke-linejoin: miter; stroke-linecap: square"/>
   </g>
   <g id="patch_16">
    <path d="M 565.2 245.145703 
L 565.2 27.6 
" style="fill: none; stroke: #000000; stroke-width: 0.8; stroke-linejoin: miter; stroke-linecap: square"/>
   </g>
   <g id="patch_17">
    <path d="M 55.494297 245.145703 
L 565.2 245.145703 
" style="fill: none; stroke: #000000; stroke-width: 0.8; stroke-linejoin: miter; stroke-linecap: square"/>
   </g>
   <g id="patch_18">
    <path d="M 55.494297 27.6 
L 565.2 27.6 
" style="fill: none; stroke: #000000; stroke-width: 0.8; stroke-linejoin: miter; stroke-linecap: square"/>
   </g>
   <g id="text_17">
    <!-- 1486 -->
    <g transform="translate(85.737786 56.224278) scale(0.07 -0.07)">
     <use xlink:href="#MicrosoftYaHei-17"/>
     <use xlink:href="#MicrosoftYaHei-1a" transform="translate(58.640625 0)"/>
     <use xlink:href="#MicrosoftYaHei-1e" transform="translate(117.28125 0)"/>
     <use xlink:href="#MicrosoftYaHei-1c" transform="translate(175.921875 0)"/>
    </g>
   </g>
   <g id="text_18">
    <!-- 1469 -->
    <g transform="translate(166.183762 58.419837) scale(0.07 -0.07)">
     <defs>
      <path id="MicrosoftYaHei-1f" d="M 578 656 
Q 978 425 1441 425 
Q 2091 425 2448 937 
Q 2806 1450 2806 2394 
Q 2800 2388 2794 2394 
Q 2475 1788 1722 1788 
Q 1113 1788 713 2206 
Q 313 2625 313 3294 
Q 313 4006 750 4464 
Q 1188 4922 1884 4922 
Q 2606 4922 3012 4355 
Q 3419 3788 3419 2703 
Q 3419 1363 2894 641 
Q 2369 -81 1441 -81 
Q 931 -81 578 84 
L 578 656 
z
M 931 3372 
Q 931 2884 1181 2598 
Q 1431 2313 1872 2313 
Q 2253 2313 2512 2573 
Q 2772 2834 2772 3206 
Q 2772 3728 2514 4070 
Q 2256 4413 1834 4413 
Q 1444 4413 1187 4116 
Q 931 3819 931 3372 
z
" transform="scale(0.015625)"/>
     </defs>
     <use xlink:href="#MicrosoftYaHei-17"/>
     <use xlink:href="#MicrosoftYaHei-1a" transform="translate(58.640625 0)"/>
     <use xlink:href="#MicrosoftYaHei-1c" transform="translate(117.28125 0)"/>
     <use xlink:href="#MicrosoftYaHei-1f" transform="translate(175.921875 0)"/>
    </g>
   </g>
   <g id="text_19">
    <!-- 1466 -->
    <g transform="translate(246.629738 58.800164) scale(0.07 -0.07)">
     <use xlink:href="#MicrosoftYaHei-17"/>
     <use xlink:href="#MicrosoftYaHei-1a" transform="translate(58.640625 0)"/>
     <use xlink:href="#MicrosoftYaHei-1c" transform="translate(117.28125 0)"/>
     <use xlink:href="#MicrosoftYaHei-1c" transform="translate(175.921875 0)"/>
    </g>
   </g>
   <g id="text_20">
    <!-- 1488 -->
    <g transform="translate(327.075713 56.042382) scale(0.07 -0.07)">
     <use xlink:href="#MicrosoftYaHei-17"/>
     <use xlink:href="#MicrosoftYaHei-1a" transform="translate(58.640625 0)"/>
     <use xlink:href="#MicrosoftYaHei-1e" transform="translate(117.28125 0)"/>
     <use xlink:href="#MicrosoftYaHei-1e" transform="translate(175.921875 0)"/>
    </g>
   </g>
   <g id="text_21">
    <!-- 1452 -->
    <g transform="translate(407.521689 60.529182) scale(0.07 -0.07)">
     <defs>
      <path id="MicrosoftYaHei-1b" d="M 3294 1494 
Q 3294 784 2823 350 
Q 2353 -84 1559 -84 
Q 878 -84 544 119 
L 544 744 
Q 1034 425 1544 425 
Q 2050 425 2361 704 
Q 2672 984 2672 1447 
Q 2672 1909 2348 2167 
Q 2025 2425 1434 2425 
Q 978 2425 613 2384 
L 791 4841 
L 3053 4841 
L 3053 4303 
L 1306 4303 
L 1206 2931 
L 1647 2950 
Q 2416 2950 2855 2567 
Q 3294 2184 3294 1494 
z
" transform="scale(0.015625)"/>
     </defs>
     <use xlink:href="#MicrosoftYaHei-17"/>
     <use xlink:href="#MicrosoftYaHei-1a" transform="translate(58.640625 0)"/>
     <use xlink:href="#MicrosoftYaHei-1b" transform="translate(117.28125 0)"/>
     <use xlink:href="#MicrosoftYaHei-18" transform="translate(175.921875 0)"/>
    </g>
   </g>
   <g id="text_22">
    <!-- 1452 -->
    <g transform="translate(487.967665 60.529892) scale(0.07 -0.07)">
     <use xlink:href="#MicrosoftYaHei-17"/>
     <use xlink:href="#MicrosoftYaHei-1a" transform="translate(58.640625 0)"/>
     <use xlink:href="#MicrosoftYaHei-1b" transform="translate(117.28125 0)"/>
     <use xlink:href="#MicrosoftYaHei-18" transform="translate(175.921875 0)"/>
    </g>
   </g>
   <g id="text_23">
    <!-- 1550 -->
    <g transform="translate(116.307257 48.237051) scale(0.07 -0.07)">
     <use xlink:href="#MicrosoftYaHei-17"/>
     <use xlink:href="#MicrosoftYaHei-1b" transform="translate(58.640625 0)"/>
     <use xlink:href="#MicrosoftYaHei-1b" transform="translate(117.28125 0)"/>
     <use xlink:href="#MicrosoftYaHei-16" transform="translate(175.921875 0)"/>
    </g>
   </g>
   <g id="text_24">
    <!-- 1531 -->
    <g transform="translate(196.753233 50.553074) scale(0.07 -0.07)">
     <defs>
      <path id="MicrosoftYaHei-19" d="M 447 809 
Q 944 425 1569 425 
Q 2069 425 2361 670 
Q 2653 916 2653 1328 
Q 2653 2247 1338 2247 
L 934 2247 
L 934 2753 
L 1319 2753 
Q 2484 2753 2484 3616 
Q 2484 4413 1594 4413 
Q 1084 4413 634 4069 
L 634 4647 
Q 1109 4922 1744 4922 
Q 2363 4922 2738 4598 
Q 3113 4275 3113 3759 
Q 3113 2809 2144 2538 
L 2144 2525 
Q 2669 2469 2973 2155 
Q 3278 1841 3278 1372 
Q 3278 719 2808 319 
Q 2338 -81 1556 -81 
Q 869 -81 447 175 
L 447 809 
z
" transform="scale(0.015625)"/>
     </defs>
     <use xlink:href="#MicrosoftYaHei-17"/>
     <use xlink:href="#MicrosoftYaHei-1b" transform="translate(58.640625 0)"/>
     <use xlink:href="#MicrosoftYaHei-19" transform="translate(117.28125 0)"/>
     <use xlink:href="#MicrosoftYaHei-17" transform="translate(175.921875 0)"/>
    </g>
   </g>
   <g id="text_25">
    <!-- 1528 -->
    <g transform="translate(277.199208 51.000501) scale(0.07 -0.07)">
     <use xlink:href="#MicrosoftYaHei-17"/>
     <use xlink:href="#MicrosoftYaHei-1b" transform="translate(58.640625 0)"/>
     <use xlink:href="#MicrosoftYaHei-18" transform="translate(117.28125 0)"/>
     <use xlink:href="#MicrosoftYaHei-1e" transform="translate(175.921875 0)"/>
    </g>
   </g>
   <g id="text_26">
    <!-- 1551 -->
    <g transform="translate(357.645184 48.134542) scale(0.07 -0.07)">
     <use xlink:href="#MicrosoftYaHei-17"/>
     <use xlink:href="#MicrosoftYaHei-1b" transform="translate(58.640625 0)"/>
     <use xlink:href="#MicrosoftYaHei-1b" transform="translate(117.28125 0)"/>
     <use xlink:href="#MicrosoftYaHei-17" transform="translate(175.921875 0)"/>
    </g>
   </g>
   <g id="text_27">
    <!-- 1514 -->
    <g transform="translate(438.09116 52.770086) scale(0.07 -0.07)">
     <use xlink:href="#MicrosoftYaHei-17"/>
     <use xlink:href="#MicrosoftYaHei-1b" transform="translate(58.640625 0)"/>
     <use xlink:href="#MicrosoftYaHei-17" transform="translate(117.28125 0)"/>
     <use xlink:href="#MicrosoftYaHei-1a" transform="translate(175.921875 0)"/>
    </g>
   </g>
   <g id="text_28">
    <!-- 1514 -->
    <g transform="translate(518.537136 52.75779) scale(0.07 -0.07)">
     <use xlink:href="#MicrosoftYaHei-17"/>
     <use xlink:href="#MicrosoftYaHei-1b" transform="translate(58.640625 0)"/>
     <use xlink:href="#MicrosoftYaHei-17" transform="translate(117.28125 0)"/>
     <use xlink:href="#MicrosoftYaHei-1a" transform="translate(175.921875 0)"/>
    </g>
   </g>
   <g id="text_29">
    <!-- 波动电价 vs 固定电价：六种更新策略全年费用 -->
    <g transform="translate(186.869023 21.6) scale(0.12 -0.12)">
     <defs>
      <path id="MicrosoftYaHei-866" d="M 2094 4453 
L 3919 4453 
L 3919 5316 
L 4406 5316 
L 4406 4453 
L 6169 4453 
L 6106 3253 
Q 5900 3278 5638 3284 
L 5688 4016 
L 4406 4016 
L 4406 2853 
L 5788 2853 
L 5788 2434 
Q 5463 1309 4653 481 
Q 5334 -50 6356 -347 
Q 6063 -641 5931 -816 
Q 4944 -444 4272 134 
Q 3550 -466 2525 -884 
Q 2406 -691 2181 -459 
Q 3213 -75 3919 478 
Q 3184 1281 2950 2416 
L 2581 2416 
Q 2588 316 1513 -847 
Q 1344 -622 1175 -447 
Q 2094 541 2094 2353 
L 2094 4453 
z
M 5269 2416 
L 3416 2416 
Q 3647 1469 4288 806 
Q 4988 1497 5269 2416 
z
M 2581 2853 
L 3919 2853 
L 3919 4016 
L 2581 4016 
L 2581 2853 
z
M 256 -609 
Q 619 466 900 1809 
Q 1175 1691 1406 1616 
Q 1019 97 806 -778 
L 256 -609 
z
M 325 4878 
L 650 5209 
Q 1063 4897 1725 4328 
Q 1513 4122 1350 3959 
Q 706 4566 325 4878 
z
M 81 3247 
L 400 3603 
Q 938 3234 1475 2803 
Q 1269 2584 1113 2397 
Q 500 2941 81 3247 
z
" transform="scale(0.015625)"/>
      <path id="MicrosoftYaHei-508" d="M 2975 4022 
L 3906 4022 
Q 3916 4650 3913 5309 
L 4425 5309 
Q 4422 4656 4409 4022 
L 6094 4022 
Q 6050 1659 5969 216 
Q 5900 -666 5150 -678 
Q 4763 -678 4306 -659 
Q 4263 -397 4206 -109 
Q 4638 -166 4994 -172 
Q 5456 -172 5475 347 
Q 5569 1897 5588 3547 
L 4400 3547 
Q 4394 3278 4388 3016 
Q 4356 553 2900 -872 
Q 2725 -659 2525 -447 
Q 3831 716 3888 3028 
Q 3894 3284 3900 3547 
L 2975 3547 
L 2975 4022 
z
M 2338 1866 
Q 2731 1016 3063 178 
Q 2788 59 2594 -28 
Q 2550 91 2506 209 
Q 1316 97 338 -16 
L 119 491 
Q 394 647 563 997 
Q 869 1613 1200 2559 
L 144 2559 
L 144 3022 
L 3163 3022 
L 3163 2559 
L 1725 2559 
Q 1191 1228 800 491 
Q 1519 544 2347 631 
Q 2138 1163 1906 1672 
L 2338 1866 
z
M 406 4778 
L 2913 4778 
L 2913 4316 
L 406 4316 
L 406 4778 
z
" transform="scale(0.015625)"/>
      <path id="MicrosoftYaHei-904" d="M 406 4497 
L 2713 4497 
L 2713 5297 
L 3231 5297 
L 3231 4497 
L 5544 4497 
L 5544 984 
L 3231 984 
L 3231 253 
Q 3231 -128 3631 -128 
L 5094 -128 
Q 5519 -128 5613 153 
Q 5713 459 5756 1034 
Q 5938 953 6275 841 
Q 6200 341 6106 -16 
Q 5950 -603 5256 -603 
L 3594 -603 
Q 2713 -603 2713 259 
L 2713 984 
L 925 984 
L 925 553 
L 406 553 
L 406 4497 
z
M 5025 1453 
L 5025 2522 
L 3231 2522 
L 3231 1453 
L 5025 1453 
z
M 925 1453 
L 2713 1453 
L 2713 2522 
L 925 2522 
L 925 1453 
z
M 5025 4028 
L 3231 4028 
L 3231 2966 
L 5025 2966 
L 5025 4028 
z
M 925 2966 
L 2713 2966 
L 2713 4028 
L 925 4028 
L 925 2966 
z
" transform="scale(0.015625)"/>
      <path id="MicrosoftYaHei-45f" d="M 69 2166 
Q 913 3484 1388 5259 
L 1875 5109 
Q 1650 4391 1400 3766 
L 1400 -853 
L 931 -853 
L 931 2722 
Q 619 2109 281 1622 
Q 163 1959 69 2166 
z
M 4319 5272 
L 4231 5116 
Q 5006 3747 6319 3141 
Q 6156 2953 5975 2703 
Q 4706 3434 3975 4703 
Q 3275 3497 2000 2603 
Q 1850 2822 1675 2997 
Q 3088 3884 3756 5272 
L 4319 5272 
z
M 3313 2828 
L 3313 1941 
Q 3313 134 2275 -891 
Q 2094 -709 1856 -541 
Q 2825 347 2825 1897 
L 2825 2828 
L 3313 2828 
z
M 4631 2828 
L 5119 2828 
L 5119 -828 
L 4631 -828 
L 4631 2828 
z
" transform="scale(0.015625)"/>
      <path id="MicrosoftYaHei-5c" d="M 3331 3456 
L 1963 0 
L 1344 0 
L 44 3456 
L 713 3456 
L 1556 988 
Q 1659 691 1678 491 
L 1694 491 
Q 1725 753 1803 975 
L 2688 3456 
L 3331 3456 
z
" transform="scale(0.015625)"/>
      <path id="MicrosoftYaHei-59" d="M 353 747 
Q 816 413 1350 413 
Q 2066 413 2066 881 
Q 2066 1081 1909 1211 
Q 1753 1341 1275 1519 
Q 700 1750 528 1976 
Q 356 2203 356 2525 
Q 356 2984 745 3261 
Q 1134 3538 1703 3538 
Q 2144 3538 2522 3384 
L 2522 2794 
Q 2134 3044 1644 3044 
Q 1350 3044 1165 2916 
Q 981 2788 981 2578 
Q 981 2372 1114 2256 
Q 1247 2141 1703 1959 
Q 2281 1744 2484 1512 
Q 2688 1281 2688 941 
Q 2688 466 2298 192 
Q 1909 -81 1291 -81 
Q 753 -81 353 122 
L 353 747 
z
" transform="scale(0.015625)"/>
      <path id="MicrosoftYaHei-5a1" d="M 469 4997 
L 5938 4997 
L 5938 -834 
L 5469 -834 
L 5469 -509 
L 944 -509 
L 944 -841 
L 469 -841 
L 469 4997 
z
M 5469 4541 
L 944 4541 
L 944 -53 
L 5469 -53 
L 5469 4541 
z
M 1869 2459 
L 2963 2459 
L 2963 3216 
L 1313 3216 
L 1313 3641 
L 2963 3641 
L 2963 4366 
L 3425 4366 
L 3425 3641 
L 5081 3641 
L 5081 3216 
L 3425 3216 
L 3425 2459 
L 4531 2459 
L 4531 434 
L 4081 434 
L 4081 691 
L 2319 691 
L 2319 434 
L 1869 434 
L 1869 2459 
z
M 4081 2047 
L 2319 2047 
L 2319 1103 
L 4081 1103 
L 4081 2047 
z
" transform="scale(0.015625)"/>
      <path id="MicrosoftYaHei-614" d="M 81 -384 
Q 1119 509 1281 2241 
L 1806 2159 
Q 1731 1581 1578 1081 
Q 2063 50 3081 -103 
L 3081 2647 
L 225 2647 
L 225 3116 
L 6163 3116 
L 6163 2647 
L 3600 2647 
L 3600 1634 
L 5775 1634 
L 5775 1172 
L 3600 1172 
L 3600 -138 
Q 4844 -169 6306 -116 
Q 6200 -359 6125 -634 
Q 4594 -653 3450 -616 
Q 2041 -616 1378 528 
Q 1022 -300 413 -872 
Q 269 -628 81 -384 
z
M 450 4566 
L 3116 4566 
Q 2931 4834 2725 5091 
L 3200 5347 
Q 3444 5066 3731 4716 
L 3450 4566 
L 5981 4566 
L 5981 3378 
L 5488 3378 
L 5488 4097 
L 944 4097 
L 944 3384 
L 450 3384 
L 450 4566 
z
" transform="scale(0.015625)"/>
      <path id="MicrosoftYaHei-379" d="M 1606 3531 
Q 1772 3531 1890 3415 
Q 2009 3300 2009 3138 
Q 2009 2975 1893 2858 
Q 1778 2741 1606 2741 
Q 1434 2741 1318 2858 
Q 1203 2975 1203 3138 
Q 1203 3300 1322 3415 
Q 1441 3531 1606 3531 
z
M 1606 716 
Q 1772 716 1890 600 
Q 2009 484 2009 319 
Q 2009 150 1890 36 
Q 1772 -78 1606 -78 
Q 1441 -78 1322 36 
Q 1203 150 1203 319 
Q 1203 484 1322 600 
Q 1441 716 1606 716 
z
" transform="scale(0.015625)"/>
      <path id="MicrosoftYaHei-4b9" d="M 188 3703 
L 6256 3703 
L 6256 3203 
L 188 3203 
L 188 3703 
z
M 2563 5022 
L 3019 5278 
Q 3319 4853 3744 4147 
L 3231 3872 
Q 2825 4647 2563 5022 
z
M 2063 2466 
L 2600 2184 
Q 1750 659 638 -703 
Q 438 -528 169 -309 
Q 1250 853 2063 2466 
z
M 3756 2103 
L 4188 2422 
Q 5213 1141 6175 -247 
L 5650 -634 
Q 4575 1059 3756 2103 
z
" transform="scale(0.015625)"/>
      <path id="MicrosoftYaHei-95f" d="M 2700 4066 
L 4113 4066 
L 4113 5316 
L 4588 5316 
L 4588 4066 
L 6006 4066 
L 6006 1053 
L 5556 1053 
L 5556 1353 
L 4588 1353 
L 4588 -841 
L 4113 -841 
L 4113 1353 
L 3150 1353 
L 3150 1053 
L 2700 1053 
L 2700 4066 
z
M 88 878 
Q 669 1691 1063 2972 
L 119 2972 
L 119 3416 
L 1119 3416 
L 1119 4434 
Q 738 4403 294 4372 
Q 263 4584 200 4828 
Q 1475 4897 2425 5034 
L 2538 4559 
Q 2141 4519 1581 4472 
L 1581 3416 
L 2475 3416 
L 2475 2972 
L 1581 2972 
L 1581 2159 
L 1850 2378 
Q 2188 2028 2606 1516 
L 2225 1203 
Q 1888 1669 1581 2025 
L 1581 -828 
L 1119 -828 
L 1119 1894 
Q 791 972 306 341 
Q 206 603 88 878 
z
M 5556 3634 
L 4588 3634 
L 4588 1784 
L 5556 1784 
L 5556 3634 
z
M 3150 1784 
L 4113 1784 
L 4113 3634 
L 3150 3634 
L 3150 1784 
z
" transform="scale(0.015625)"/>
      <path id="MicrosoftYaHei-7be" d="M 106 -422 
Q 1250 -231 1950 166 
Q 1416 534 981 1134 
L 1309 1384 
L 825 1384 
L 825 4003 
L 3019 4003 
Q 3022 4272 3025 4578 
L 331 4578 
L 331 5016 
L 6069 5016 
L 6069 4578 
L 3506 4578 
Q 3506 4269 3503 4003 
L 5575 4003 
L 5575 1078 
L 5100 1078 
L 5100 1384 
L 3350 1384 
Q 3188 644 2834 244 
Q 4088 -216 6325 -209 
Q 6169 -484 6069 -709 
Q 3588 -641 2422 -100 
Q 1703 -575 394 -866 
Q 269 -647 106 -422 
z
M 1300 2903 
L 3006 2903 
Q 3013 3203 3016 3578 
L 1300 3578 
L 1300 2903 
z
M 3000 2484 
L 1300 2484 
L 1300 1809 
L 2947 1809 
Q 2988 2116 3000 2484 
z
M 3422 1809 
L 5100 1809 
L 5100 2484 
L 3481 2484 
Q 3466 2122 3422 1809 
z
M 5100 3578 
L 3500 3578 
Q 3497 3200 3491 2903 
L 5100 2903 
L 5100 3578 
z
M 2369 453 
Q 2706 744 2866 1384 
L 1334 1384 
Q 1766 784 2369 453 
z
" transform="scale(0.015625)"/>
      <path id="MicrosoftYaHei-78f" d="M 3594 4797 
Q 4888 4809 5981 5053 
L 6144 4572 
Q 4906 4409 4038 4359 
L 4038 2903 
L 6319 2903 
L 6319 2478 
L 5425 2478 
L 5425 -797 
L 4963 -797 
L 4963 2478 
L 4038 2478 
L 4038 2172 
Q 4038 253 3119 -816 
Q 2969 -622 2788 -416 
Q 3594 466 3594 2191 
L 3594 4797 
z
M 263 1991 
L 1538 1991 
L 1538 2584 
L 1988 2584 
L 1988 1991 
L 3213 1991 
L 3213 1591 
L 1988 1591 
L 1988 -41 
Q 1988 -703 1350 -703 
Q 1081 -703 744 -697 
Q 719 -491 675 -222 
Q 1038 -259 1244 -259 
Q 1538 -259 1538 59 
L 1538 1591 
L 263 1591 
L 263 1991 
z
M 88 3159 
L 1094 3159 
Q 828 3581 594 3884 
L 931 4122 
Q 1138 3872 1463 3416 
L 1109 3159 
L 1934 3159 
Q 2275 3650 2563 4128 
L 3006 3878 
Q 2703 3488 2428 3159 
L 3375 3159 
L 3375 2759 
L 88 2759 
L 88 3159 
z
M 288 4609 
L 1638 4609 
Q 1503 4866 1331 5166 
L 1731 5353 
Q 1925 5034 2094 4709 
L 1884 4609 
L 3213 4609 
L 3213 4209 
L 288 4209 
L 288 4609 
z
M 744 1309 
L 1169 1109 
Q 831 403 500 -166 
Q 319 -53 88 59 
Q 394 534 744 1309 
z
M 2544 1278 
Q 2894 803 3156 403 
L 2756 128 
Q 2481 609 2175 1034 
L 2544 1278 
z
" transform="scale(0.015625)"/>
      <path id="MicrosoftYaHei-98c" d="M 6306 -128 
Q 6094 -397 5969 -591 
Q 4284 122 3438 1069 
L 3438 -841 
L 2975 -841 
L 2975 1053 
Q 1894 6 413 -666 
Q 250 -447 88 -272 
Q 1709 366 2975 1622 
L 2975 2034 
L 1269 2034 
L 1269 828 
L 813 828 
L 813 2422 
L 2975 2422 
L 2975 2928 
L 263 2928 
L 263 3322 
L 2975 3322 
L 2975 3703 
L 3438 3703 
L 3438 3322 
L 6156 3322 
L 6156 2928 
L 3438 2928 
L 3438 2422 
L 5706 2422 
L 5706 1403 
Q 5706 784 5069 784 
Q 4813 784 4513 803 
Q 4488 1047 4438 1272 
Q 4763 1222 4950 1222 
Q 5250 1222 5250 1516 
L 5250 2034 
L 3438 2034 
L 3438 1625 
Q 4619 372 6306 -128 
z
M 1294 5347 
L 1831 5347 
Q 1688 5041 1513 4759 
L 3325 4759 
L 3325 4372 
L 1244 4372 
Q 875 3878 388 3459 
Q 263 3609 75 3797 
Q 856 4428 1294 5347 
z
M 4006 5347 
L 4513 5347 
Q 4375 5031 4231 4759 
L 6225 4759 
L 6225 4372 
L 4013 4372 
Q 3778 3981 3525 3697 
Q 3388 3797 3088 3934 
Q 3663 4553 4006 5347 
z
M 4781 3416 
Q 4644 3628 4263 4072 
L 4588 4303 
Q 4919 3991 5150 3697 
L 4781 3416 
z
M 1988 3416 
Q 1750 3728 1469 4053 
L 1794 4284 
Q 2094 3997 2356 3697 
L 1988 3416 
z
" transform="scale(0.015625)"/>
      <path id="MicrosoftYaHei-90b" d="M 413 4716 
L 2600 4716 
L 2600 -222 
L 2188 -222 
L 2188 97 
L 825 97 
L 825 -347 
L 413 -347 
L 413 4716 
z
M 2638 3378 
Q 3269 4222 3719 5341 
L 4169 5197 
Q 4044 4913 3919 4653 
L 5888 4653 
L 5888 4234 
Q 5453 3375 4819 2756 
Q 5434 2328 6331 2109 
Q 6194 1853 6094 1591 
Q 5122 1919 4466 2450 
Q 3797 1925 2906 1516 
Q 2756 1772 2619 1947 
Q 3463 2269 4125 2763 
Q 3747 3159 3428 3734 
Q 3200 3353 2969 3047 
Q 2781 3266 2638 3378 
z
M 3200 1584 
L 5756 1584 
L 5756 -847 
L 5294 -847 
L 5294 -547 
L 3663 -547 
L 3663 -847 
L 3200 -847 
L 3200 1584 
z
M 5294 1147 
L 3663 1147 
L 3663 -109 
L 5294 -109 
L 5294 1147 
z
M 5363 4228 
L 3703 4228 
L 3666 4159 
Q 4013 3475 4466 3041 
Q 4963 3500 5363 4228 
z
M 825 516 
L 1300 516 
L 1300 2209 
L 825 2209 
L 825 516 
z
M 1713 516 
L 2188 516 
L 2188 2209 
L 1713 2209 
L 1713 516 
z
M 2188 4297 
L 1713 4297 
L 1713 2628 
L 2188 2628 
L 2188 4297 
z
M 825 2628 
L 1300 2628 
L 1300 4297 
L 825 4297 
L 825 2628 
z
" transform="scale(0.015625)"/>
     </defs>
     <use xlink:href="#MicrosoftYaHei-866"/>
     <use xlink:href="#MicrosoftYaHei-508" transform="translate(100 0)"/>
     <use xlink:href="#MicrosoftYaHei-904" transform="translate(200 0)"/>
     <use xlink:href="#MicrosoftYaHei-45f" transform="translate(300 0)"/>
     <use xlink:href="#MicrosoftYaHei-3" transform="translate(400 0)"/>
     <use xlink:href="#MicrosoftYaHei-5c" transform="translate(429.59375 0)"/>
     <use xlink:href="#MicrosoftYaHei-59" transform="translate(482.078125 0)"/>
     <use xlink:href="#MicrosoftYaHei-3" transform="translate(528.375 0)"/>
     <use xlink:href="#MicrosoftYaHei-5a1" transform="translate(557.96875 0)"/>
     <use xlink:href="#MicrosoftYaHei-614" transform="translate(657.96875 0)"/>
     <use xlink:href="#MicrosoftYaHei-904" transform="translate(757.96875 0)"/>
     <use xlink:href="#MicrosoftYaHei-45f" transform="translate(857.96875 0)"/>
     <use xlink:href="#MicrosoftYaHei-379" transform="translate(957.96875 0)"/>
     <use xlink:href="#MicrosoftYaHei-4b9" transform="translate(1057.96875 0)"/>
     <use xlink:href="#MicrosoftYaHei-95f" transform="translate(1157.96875 0)"/>
     <use xlink:href="#MicrosoftYaHei-7be" transform="translate(1257.96875 0)"/>
     <use xlink:href="#MicrosoftYaHei-78f" transform="translate(1357.96875 0)"/>
     <use xlink:href="#MicrosoftYaHei-98c" transform="translate(1457.96875 0)"/>
     <use xlink:href="#MicrosoftYaHei-90b" transform="translate(1557.96875 0)"/>
     <use xlink:href="#MicrosoftYaHei-4b6" transform="translate(1657.96875 0)"/>
     <use xlink:href="#MicrosoftYaHei-676" transform="translate(1757.96875 0)"/>
     <use xlink:href="#MicrosoftYaHei-acb" transform="translate(1857.96875 0)"/>
     <use xlink:href="#MicrosoftYaHei-900" transform="translate(1957.96875 0)"/>
    </g>
   </g>
   <g id="legend_1">
    <g id="patch_19">
     <path d="M 63.594297 220.508555 
L 81.594297 220.508555 
L 81.594297 214.208555 
L 63.594297 214.208555 
z
" style="fill: #8c6d5d"/>
    </g>
    <g id="text_30">
     <!-- 固定电价(Q3) -->
     <g transform="translate(88.794297 220.508555) scale(0.09 -0.09)">
      <defs>
       <path id="MicrosoftYaHei-e" d="M 1531 -1100 
Q 478 100 478 1847 
Q 478 3594 1531 4841 
L 2072 4841 
Q 1016 3544 1016 1853 
Q 1016 166 2066 -1100 
L 1531 -1100 
z
" transform="scale(0.015625)"/>
       <path id="MicrosoftYaHei-37" d="M 313 2363 
Q 313 3534 947 4228 
Q 1581 4922 2666 4922 
Q 3675 4922 4290 4244 
Q 4906 3566 4906 2478 
Q 4906 1300 4275 609 
Q 4125 447 3953 322 
L 5313 -653 
L 4284 -653 
L 3366 28 
Q 3009 -81 2588 -81 
Q 1556 -81 934 597 
Q 313 1275 313 2363 
z
M 969 2413 
Q 969 1534 1417 1004 
Q 1866 475 2588 475 
Q 3363 475 3805 983 
Q 4247 1491 4247 2403 
Q 4247 3341 3814 3850 
Q 3381 4359 2628 4359 
Q 1888 4359 1428 3821 
Q 969 3284 969 2413 
z
" transform="scale(0.015625)"/>
       <path id="MicrosoftYaHei-f" d="M 78 -1100 
Q 1131 163 1131 1853 
Q 1131 3547 72 4841 
L 616 4841 
Q 1672 3603 1672 1847 
Q 1672 91 616 -1100 
L 78 -1100 
z
" transform="scale(0.015625)"/>
      </defs>
      <use xlink:href="#MicrosoftYaHei-5a1"/>
      <use xlink:href="#MicrosoftYaHei-614" transform="translate(100 0)"/>
      <use xlink:href="#MicrosoftYaHei-904" transform="translate(200 0)"/>
      <use xlink:href="#MicrosoftYaHei-45f" transform="translate(300 0)"/>
      <use xlink:href="#MicrosoftYaHei-e" transform="translate(400 0)"/>
      <use xlink:href="#MicrosoftYaHei-37" transform="translate(433.40625 0)"/>
      <use xlink:href="#MicrosoftYaHei-19" transform="translate(514.90625 0)"/>
      <use xlink:href="#MicrosoftYaHei-f" transform="translate(573.546875 0)"/>
     </g>
    </g>
    <g id="patch_20">
     <path d="M 63.594297 234.764941 
L 81.594297 234.764941 
L 81.594297 228.464941 
L 63.594297 228.464941 
z
" style="fill: #c15f3c"/>
    </g>
    <g id="text_31">
     <!-- 波动电价(Q4) -->
     <g transform="translate(88.794297 234.764941) scale(0.09 -0.09)">
      <use xlink:href="#MicrosoftYaHei-866"/>
      <use xlink:href="#MicrosoftYaHei-508" transform="translate(100 0)"/>
      <use xlink:href="#MicrosoftYaHei-904" transform="translate(200 0)"/>
      <use xlink:href="#MicrosoftYaHei-45f" transform="translate(300 0)"/>
      <use xlink:href="#MicrosoftYaHei-e" transform="translate(400 0)"/>
      <use xlink:href="#MicrosoftYaHei-37" transform="translate(433.40625 0)"/>
      <use xlink:href="#MicrosoftYaHei-1a" transform="translate(514.90625 0)"/>
      <use xlink:href="#MicrosoftYaHei-f" transform="translate(573.546875 0)"/>
     </g>
    </g>
   </g>
  </g>
 </g>
 <defs>
  <clipPath id="p39157eea5f">
   <rect x="55.494297" y="27.6" width="509.705703" height="217.545703"/>
  </clipPath>
 </defs>
</svg>
